<?xml version="1.0" standalone="no"?>
<!DOCTYPE svg PUBLIC "-//W3C//DTD SVG 20010904//EN"
 "http://www.w3.org/TR/2001/REC-SVG-20010904/DTD/svg10.dtd">
<svg version="1.0" xmlns="http://www.w3.org/2000/svg"
 width="1022.000000pt" height="1054.000000pt" viewBox="0 0 1022.000000 1054.000000"
 preserveAspectRatio="xMidYMid meet">

<g transform="translate(0.000000,1054.000000) scale(0.100000,-0.100000)"
fill="#000000" stroke="none">
<path d="M5315 9766 c-112 -21 -229 -54 -310 -86 -429 -170 -813 -525 -969
-896 -141 -334 -100 -767 100 -1052 26 -37 66 -108 90 -158 55 -115 74 -139
137 -170 119 -60 156 -114 178 -261 10 -64 10 -109 1 -205 -20 -204 -14 -284
27 -339 l20 -27 -32 9 c-17 5 -66 9 -108 9 -73 0 -77 1 -83 24 -3 14 -25 41
-49 60 -265 223 -333 250 -622 250 -160 0 -175 -1 -250 -28 -134 -46 -331
-150 -465 -245 -170 -120 -287 -274 -351 -459 -31 -90 -33 -106 -33 -222 0
-85 4 -141 15 -175 13 -43 14 -59 3 -110 -20 -96 -26 -187 -16 -230 76 -301
78 -305 115 -330 12 -8 76 -33 142 -55 155 -54 320 -124 368 -157 24 -17 49
-48 67 -82 32 -64 52 -84 131 -134 37 -24 88 -74 153 -152 165 -196 232 -231
556 -284 322 -54 436 -100 677 -277 121 -88 215 -185 276 -283 73 -117 262
-294 497 -468 93 -68 273 -184 338 -217 18 -10 88 -53 155 -98 159 -105 209
-129 277 -135 43 -4 67 -1 101 15 57 26 119 80 159 139 28 42 31 54 27 101 -2
37 0 52 9 52 7 0 24 14 39 32 57 68 4 161 -110 193 -70 20 -219 45 -270 45
-29 0 -47 6 -60 20 -10 11 -72 57 -138 102 -121 83 -212 166 -412 379 -98 104
-175 159 -223 159 -18 0 -18 1 1 58 26 77 19 125 -44 296 -28 77 -60 176 -71
220 -83 336 -135 463 -227 555 -125 125 -338 183 -454 125 -145 -73 -165 -245
-67 -566 42 -137 167 -451 246 -617 35 -74 62 -136 60 -138 -4 -5 -172 186
-214 245 -90 126 -140 270 -186 542 -38 226 -59 274 -196 450 -140 179 -157
232 -161 485 -4 358 -41 545 -122 623 -44 42 -74 47 -121 20 -50 -29 -70 -64
-97 -164 -27 -100 -36 -347 -20 -530 21 -249 -24 -336 -173 -336 -34 0 -139
-7 -234 -16 -197 -18 -286 -10 -380 33 -147 68 -274 217 -345 405 -48 129 -60
218 -46 331 27 215 154 425 347 572 113 86 351 214 476 257 96 33 229 44 355
31 165 -17 281 -59 361 -131 19 -17 58 -49 85 -69 28 -21 70 -59 93 -85 l44
-47 97 -8 c113 -9 151 -27 151 -72 0 -29 -22 -40 -35 -19 -8 13 -55 13 -55 1
0 -20 33 -41 64 -41 37 0 147 -63 172 -98 14 -21 14 -25 -5 -56 -28 -44 -27
-53 9 -61 29 -6 50 -41 37 -62 -5 -9 18 -62 49 -113 21 -35 13 -109 -16 -149
-34 -49 -113 -107 -177 -132 -34 -12 -94 -24 -142 -28 -91 -6 -114 -22 -59
-40 18 -5 208 -53 422 -106 214 -53 424 -107 467 -121 92 -29 158 -71 219
-139 112 -125 143 -145 325 -208 195 -68 333 -141 472 -251 117 -93 118 -94
98 -203 -23 -127 -30 -308 -16 -385 21 -109 74 -178 136 -178 72 0 114 71 115
190 0 128 -48 269 -139 404 l-50 74 43 154 c60 210 164 498 341 953 310 794
461 1267 516 1615 30 185 32 461 6 615 -48 279 -179 564 -393 852 -79 107
-244 283 -349 372 -77 65 -258 183 -375 244 -135 71 -322 138 -480 172 -152
33 -399 43 -515 21z m415 -27 c247 -37 531 -149 758 -299 298 -196 550 -478
730 -820 158 -299 208 -514 199 -850 -6 -224 -37 -425 -96 -635 -36 -126 -84
-278 -139 -440 -65 -192 -109 -312 -285 -770 -253 -664 -303 -803 -356 -995
-18 -63 -34 -121 -37 -129 -3 -9 -26 7 -68 47 -127 118 -301 215 -533 297
-162 57 -194 77 -287 177 -42 46 -100 98 -129 115 -64 39 -200 79 -609 179
-174 43 -315 81 -313 85 3 3 19 9 37 12 117 19 239 102 283 192 34 68 30 111
-14 161 -30 33 -36 60 -31 121 1 15 -8 28 -29 41 -22 13 -27 22 -20 32 5 8 9
31 9 52 0 41 -25 67 -110 115 -46 26 -50 31 -50 64 0 20 -7 42 -15 49 -23 19
-18 25 23 25 20 1 58 11 84 24 26 12 59 21 74 19 33 -4 48 -42 69 -164 7 -45
18 -92 25 -104 16 -31 93 -63 130 -55 29 6 30 6 30 -35 0 -56 50 -110 102
-110 28 0 138 -33 142 -42 39 -92 98 -162 161 -193 53 -26 157 -27 206 -2 87
43 309 307 431 512 121 203 198 415 239 655 20 120 15 555 -8 593 -2 4 2 7 11
7 27 0 85 82 117 164 28 74 31 89 27 171 -7 162 -82 275 -164 248 -55 -18 -69
-53 -69 -166 0 -113 20 -313 35 -353 40 -105 54 -482 25 -664 -45 -277 -140
-510 -308 -754 -138 -200 -155 -222 -235 -298 -97 -92 -127 -109 -196 -109
-94 0 -162 41 -214 131 -48 82 -72 101 -138 109 -65 8 -138 41 -148 66 -3 9
-6 30 -6 45 0 25 7 32 45 49 46 20 57 37 29 48 -21 8 -64 -13 -64 -32 0 -24
-89 -23 -128 2 -29 18 -52 70 -52 117 0 19 -9 63 -20 98 -11 34 -20 64 -20 66
0 1 9 2 21 2 53 0 98 47 99 103 0 106 -120 199 -178 136 -36 -38 -35 -110 3
-201 6 -15 2 -18 -21 -18 -16 0 -49 -11 -73 -25 -69 -40 -95 -32 -144 47 -15
24 -16 43 -10 140 5 62 8 178 8 258 -1 122 -4 154 -22 202 -31 84 -55 111
-132 152 -83 43 -113 77 -159 176 -19 41 -62 115 -94 163 -130 194 -185 400
-176 659 7 165 33 277 97 413 82 173 174 298 327 445 287 276 637 451 981 490
85 9 241 5 343 -11z m669 -1533 c30 -31 60 -115 67 -184 8 -69 -13 -156 -55
-240 -62 -124 -81 -113 -109 64 -39 253 -39 318 4 365 24 26 66 24 93 -5z
m-1485 -1394 c22 -20 46 -73 46 -101 0 -31 -41 -69 -81 -76 -35 -7 -36 -6 -57
44 -43 97 -18 184 45 160 16 -6 36 -18 47 -27z m-933 -522 c30 -17 50 -66 51
-128 2 -69 -7 -99 -33 -113 -29 -15 -56 -2 -68 33 -22 63 -8 218 21 218 5 0
18 -5 29 -10z m-87 -82 c-7 -68 8 -141 33 -170 23 -25 77 -23 102 4 26 27 35
74 28 146 l-5 57 19 -43 c30 -70 48 -189 59 -404 5 -111 12 -243 14 -291 4
-76 10 -98 41 -160 19 -40 63 -106 96 -147 145 -179 175 -247 215 -487 53
-320 109 -448 288 -657 l51 -60 -75 54 c-176 126 -319 181 -600 230 -366 65
-396 81 -619 339 -30 35 -85 84 -123 109 -57 37 -75 57 -98 102 -35 68 -68 99
-145 138 -84 41 -284 120 -362 143 -94 26 -123 58 -138 149 -4 25 -18 81 -31
124 -26 87 -31 174 -13 257 l11 52 34 -65 c54 -108 83 -149 163 -229 130 -130
232 -166 445 -155 72 4 196 10 276 14 80 4 154 13 165 19 31 18 70 65 86 103
14 36 14 40 8 445 -2 156 1 217 14 277 15 75 50 168 62 168 3 0 3 -28 -1 -62z
m1007 -954 c78 -23 144 -59 196 -107 95 -87 136 -177 213 -467 28 -107 72
-249 97 -315 53 -142 64 -223 39 -289 -9 -24 -26 -52 -36 -61 -31 -28 -24 -34
33 -28 39 4 62 1 88 -12 19 -10 129 -113 244 -230 164 -165 233 -227 315 -283
58 -40 116 -80 129 -91 l24 -18 -22 -22 c-36 -36 -21 -71 30 -71 31 0 45 15
41 46 -4 31 19 33 143 12 185 -30 249 -65 249 -133 0 -27 -6 -43 -23 -56 -30
-25 -55 -24 -90 2 -33 24 -57 18 -41 -11 5 -10 23 -23 39 -28 38 -13 55 -45
46 -88 -7 -41 -102 -147 -154 -173 -97 -50 -155 -35 -341 87 -74 48 -162 103
-195 122 -300 169 -649 447 -792 633 -25 32 -44 59 -42 61 2 1 16 10 31 19 34
21 62 105 48 142 -19 50 -117 21 -141 -42 l-9 -24 -28 33 c-16 18 -32 46 -36
63 -4 16 -30 77 -58 135 -167 350 -294 705 -318 890 -28 209 43 319 206 320
33 0 85 -7 115 -16z m1668 -603 c22 -35 54 -99 71 -142 64 -165 63 -309 -1
-364 -38 -31 -50 -31 -87 0 -65 55 -91 184 -73 362 15 137 32 226 41 216 5 -4
26 -37 49 -72z m-1421 -775 c2 -10 -4 -38 -13 -62 -19 -51 -45 -58 -71 -19
-21 32 -12 65 23 87 34 21 57 19 61 -6z m1122 -576 c0 -21 -24 -28 -35 -10 -8
14 3 30 21 30 8 0 14 -9 14 -20z"/>
<path d="M3475 2423 c-63 -23 -119 -65 -154 -117 -39 -57 -51 -99 -51 -176 0
-159 130 -284 295 -284 89 0 148 25 214 93 58 59 81 119 81 205 0 194 -206
343 -385 279z m192 -48 c53 -22 121 -100 138 -158 19 -63 19 -91 1 -151 -28
-92 -100 -158 -194 -176 -176 -33 -331 123 -294 297 34 164 197 251 349 188z"/>
<path d="M4083 2418 c109 -269 231 -566 237 -577 4 -7 10 -10 13 -5 8 15 237
580 237 587 0 4 -10 7 -22 7 -21 0 -32 -23 -102 -208 -44 -114 -88 -227 -99
-252 l-19 -45 -100 253 c-93 237 -101 252 -125 252 -16 0 -23 -4 -20 -12z"/>
<path d="M4820 2246 c0 -203 9 -274 42 -323 66 -95 224 -107 309 -22 50 50 59
98 59 334 0 185 -1 195 -19 195 -18 0 -19 -11 -23 -212 -3 -182 -6 -218 -21
-250 -57 -114 -233 -109 -283 9 -10 24 -14 87 -14 243 l0 210 -25 0 -25 0 0
-184z"/>
<path d="M5530 2140 l0 -290 180 0 c173 0 180 1 180 20 0 19 -7 20 -160 20
l-160 0 0 270 c0 263 0 270 -20 270 -20 0 -20 -7 -20 -290z"/>
<path d="M6140 2140 l0 -290 25 0 25 0 0 290 0 290 -25 0 -25 0 0 -290z"/>
<path d="M6526 2300 c46 -71 87 -136 90 -143 3 -8 -36 -78 -85 -155 -50 -77
-91 -143 -91 -146 0 -3 10 -6 23 -6 19 0 38 24 104 131 l81 131 81 -123 c44
-68 82 -128 84 -132 1 -5 15 -7 29 -5 27 3 27 4 -67 148 l-94 145 22 35 c11
19 49 78 82 130 34 52 64 101 69 108 5 8 0 12 -18 12 -21 0 -36 -18 -97 -115
-39 -63 -75 -117 -79 -120 -4 -3 -43 49 -86 115 -69 105 -82 120 -106 120 -27
0 -26 -2 58 -130z"/>
</g>
</svg>
